<?xml version="1.0" encoding="UTF-8" standalone="no"?>
<svg
   xmlns:dc="http://purl.org/dc/elements/1.1/"
   xmlns:cc="http://creativecommons.org/ns#"
   xmlns:rdf="http://www.w3.org/1999/02/22-rdf-syntax-ns#"
   xmlns:svg="http://www.w3.org/2000/svg"
   xmlns="http://www.w3.org/2000/svg"
   width="73.343559mm"
   height="73.343819mm"
   viewBox="0 0 73.34356 73.343819"
   version="1.1"
   id="svg8">
  <defs
     id="defs2">
	
	
	

	
	
	
	
	
	
	
</defs>
  <metadata
     id="metadata5">
    <rdf:RDF>
      <cc:Work
         rdf:about="">
        <dc:format>image/svg+xml</dc:format>
        <dc:type
           rdf:resource="http://purl.org/dc/dcmitype/StillImage" />
        <dc:title></dc:title>
      </cc:Work>
    </rdf:RDF>
  </metadata>
  <g
     id="layer1"
     transform="translate(-43.459174,-46.104742)">
    <g
       id="g883"
       transform="matrix(0.26458333,0,0,0.26458333,62.290311,146.20117)">
</g>
    <g
       id="g885"
       transform="matrix(0.26458333,0,0,0.26458333,62.290311,146.20117)">
</g>
    <g
       id="g887"
       transform="matrix(0.26458333,0,0,0.26458333,62.290311,146.20117)">
</g>
    <g
       id="g889"
       transform="matrix(0.26458333,0,0,0.26458333,62.290311,146.20117)">
</g>
    <g
       id="g891"
       transform="matrix(0.26458333,0,0,0.26458333,62.290311,146.20117)">
</g>
    <g
       id="g893"
       transform="matrix(0.26458333,0,0,0.26458333,62.290311,146.20117)">
</g>
    <g
       id="g895"
       transform="matrix(0.26458333,0,0,0.26458333,62.290311,146.20117)">
</g>
    <g
       id="g897"
       transform="matrix(0.26458333,0,0,0.26458333,62.290311,146.20117)">
</g>
    <g
       id="g899"
       transform="matrix(0.26458333,0,0,0.26458333,62.290311,146.20117)">
</g>
    <g
       id="g901"
       transform="matrix(0.26458333,0,0,0.26458333,62.290311,146.20117)">
</g>
    <g
       id="g903"
       transform="matrix(0.26458333,0,0,0.26458333,62.290311,146.20117)">
</g>
    <g
       id="g905"
       transform="matrix(0.26458333,0,0,0.26458333,62.290311,146.20117)">
</g>
    <g
       id="g907"
       transform="matrix(0.26458333,0,0,0.26458333,62.290311,146.20117)">
</g>
    <g
       id="g909"
       transform="matrix(0.26458333,0,0,0.26458333,62.290311,146.20117)">
</g>
    <g
       id="g911"
       transform="matrix(0.26458333,0,0,0.26458333,62.290311,146.20117)">
</g>
    <g
       id="g1265">
      <g
         id="g1027"
         transform="matrix(0.26458333,0,0,0.26458333,12.39762,15.043453)">
	<path
   style="fill:#fee187"
   d="m 187.733,178.424 c -4.284,0 -7.758,-3.474 -7.758,-7.758 v -45.511 c 0,-4.284 3.474,-7.758 7.758,-7.758 4.284,0 7.758,3.474 7.758,7.758 v 45.511 c 0,4.285 -3.472,7.758 -7.758,7.758 z"
   id="path1023" />

	<path
   style="fill:#fee187"
   d="m 233.244,178.424 c -4.284,0 -7.758,-3.474 -7.758,-7.758 v -45.511 c 0,-4.284 3.474,-7.758 7.758,-7.758 4.284,0 7.758,3.474 7.758,7.758 v 45.511 c 0,4.285 -3.474,7.758 -7.758,7.758 z"
   id="path1025" />

</g>
      <g
         id="g1033"
         transform="matrix(0.26458333,0,0,0.26458333,12.39762,15.043453)">
	<path
   style="fill:#ffc61b"
   d="m 324.267,178.424 c -4.284,0 -7.758,-3.474 -7.758,-7.758 v -45.511 c 0,-4.284 3.474,-7.758 7.758,-7.758 4.284,0 7.758,3.474 7.758,7.758 v 45.511 c -10e-4,4.285 -3.474,7.758 -7.758,7.758 z"
   id="path1029" />

	<path
   style="fill:#ffc61b"
   d="m 278.756,178.424 c -4.284,0 -7.758,-3.474 -7.758,-7.758 v -45.511 c 0,-4.284 3.474,-7.758 7.758,-7.758 4.284,0 7.758,3.474 7.758,7.758 v 45.511 c -0.001,4.285 -3.473,7.758 -7.758,7.758 z"
   id="path1031" />

</g>
      <g
         id="g1039"
         transform="matrix(0.26458333,0,0,0.26458333,12.39762,15.043453)">
	<path
   style="fill:#fee187"
   d="m 187.733,394.602 c -4.284,0 -7.758,-3.474 -7.758,-7.758 v -45.511 c 0,-4.284 3.474,-7.758 7.758,-7.758 4.284,0 7.758,3.474 7.758,7.758 v 45.511 c 0,4.286 -3.472,7.758 -7.758,7.758 z"
   id="path1035" />

	<path
   style="fill:#fee187"
   d="m 233.244,394.602 c -4.284,0 -7.758,-3.474 -7.758,-7.758 v -45.511 c 0,-4.284 3.474,-7.758 7.758,-7.758 4.284,0 7.758,3.474 7.758,7.758 v 45.511 c 0,4.286 -3.474,7.758 -7.758,7.758 z"
   id="path1037" />

</g>
      <g
         id="g1053"
         transform="matrix(0.26458333,0,0,0.26458333,12.39762,15.043453)">
	<path
   style="fill:#ffc61b"
   d="m 324.267,394.602 c -4.284,0 -7.758,-3.474 -7.758,-7.758 v -45.511 c 0,-4.284 3.474,-7.758 7.758,-7.758 4.284,0 7.758,3.474 7.758,7.758 v 45.511 c -10e-4,4.286 -3.474,7.758 -7.758,7.758 z"
   id="path1041" />

	<path
   style="fill:#ffc61b"
   d="m 278.756,394.602 c -4.284,0 -7.758,-3.474 -7.758,-7.758 v -45.511 c 0,-4.284 3.474,-7.758 7.758,-7.758 4.284,0 7.758,3.474 7.758,7.758 v 45.511 c -0.001,4.286 -3.473,7.758 -7.758,7.758 z"
   id="path1043" />

	<path
   style="fill:#ffc61b"
   d="m 386.844,195.491 h -45.511 c -4.284,0 -7.758,-3.474 -7.758,-7.758 0,-4.284 3.474,-7.758 7.758,-7.758 h 45.511 c 4.284,0 7.758,3.474 7.758,7.758 0,4.284 -3.472,7.758 -7.758,7.758 z"
   id="path1045" />

	<path
   style="fill:#ffc61b"
   d="m 386.844,241.002 h -45.511 c -4.284,0 -7.758,-3.474 -7.758,-7.758 0,-4.284 3.474,-7.758 7.758,-7.758 h 45.511 c 4.284,0 7.758,3.474 7.758,7.758 0,4.284 -3.472,7.758 -7.758,7.758 z"
   id="path1047" />

	<path
   style="fill:#ffc61b"
   d="m 386.844,332.024 h -45.511 c -4.284,0 -7.758,-3.474 -7.758,-7.758 0,-4.284 3.474,-7.758 7.758,-7.758 h 45.511 c 4.284,0 7.758,3.474 7.758,7.758 0,4.284 -3.472,7.758 -7.758,7.758 z"
   id="path1049" />

	<path
   style="fill:#ffc61b"
   d="m 386.844,286.513 h -45.511 c -4.284,0 -7.758,-3.474 -7.758,-7.758 0,-4.284 3.474,-7.758 7.758,-7.758 h 45.511 c 4.284,0 7.758,3.474 7.758,7.758 0,4.284 -3.472,7.758 -7.758,7.758 z"
   id="path1051" />

</g>
      <g
         id="g1063"
         transform="matrix(0.26458333,0,0,0.26458333,12.39762,15.043453)">
	<path
   style="fill:#fee187"
   d="m 170.667,195.491 h -45.511 c -4.284,0 -7.758,-3.474 -7.758,-7.758 0,-4.284 3.474,-7.758 7.758,-7.758 h 45.511 c 4.284,0 7.758,3.474 7.758,7.758 0,4.284 -3.474,7.758 -7.758,7.758 z"
   id="path1055" />

	<path
   style="fill:#fee187"
   d="m 170.667,241.002 h -45.511 c -4.284,0 -7.758,-3.474 -7.758,-7.758 0,-4.284 3.474,-7.758 7.758,-7.758 h 45.511 c 4.284,0 7.758,3.474 7.758,7.758 0,4.284 -3.474,7.758 -7.758,7.758 z"
   id="path1057" />

	<path
   style="fill:#fee187"
   d="m 170.667,332.024 h -45.511 c -4.284,0 -7.758,-3.474 -7.758,-7.758 0,-4.284 3.474,-7.758 7.758,-7.758 h 45.511 c 4.284,0 7.758,3.474 7.758,7.758 0,4.284 -3.474,7.758 -7.758,7.758 z"
   id="path1059" />

	<path
   style="fill:#fee187"
   d="m 170.667,286.513 h -45.511 c -4.284,0 -7.758,-3.474 -7.758,-7.758 0,-4.284 3.474,-7.758 7.758,-7.758 h 45.511 c 4.284,0 7.758,3.474 7.758,7.758 0,4.284 -3.474,7.758 -7.758,7.758 z"
   id="path1061" />

</g>
      <path
         style="fill:#7cbf34;stroke-width:0.264583"
         d="m 57.628934,109.91563 h 45.003776 c 2.56116,0 4.63735,-2.07619 4.63735,-4.63736 V 60.274767 c 0,-2.560637 -2.07619,-4.636823 -4.63735,-4.636823 H 57.628934 c -2.560637,0 -4.636823,2.076186 -4.636823,4.636823 v 45.003773 c 0,2.5609 2.076186,4.63709 4.636823,4.63709 z"
         id="path1065" />
      <path
         style="fill:#63aa1f;stroke-width:0.264583"
         d="M 102.63244,55.637944 H 80.130952 v 54.277946 h 22.501488 c 2.56117,0 4.63735,-2.07618 4.63735,-4.63735 V 60.275296 c 0,-2.561166 -2.07618,-4.637352 -4.63735,-4.637352 z"
         id="path1067" />
      <path
         style="fill:#dddddd;stroke-width:0.264583"
         d="m 62.190615,105.35447 h 35.881204 c 2.561171,0 4.637351,-2.07618 4.637351,-4.63735 V 64.835919 c -5.3e-4,-2.560637 -2.07671,-4.636823 -4.637351,-4.636823 H 62.190615 c -2.561166,0 -4.637352,2.076186 -4.637352,4.636823 v 35.881471 c 0,2.5609 2.076186,4.63708 4.637352,4.63708 z"
         id="path1069" />
      <path
         style="fill:#b7b7b7;stroke-width:0.264583"
         d="M 98.07129,60.199096 H 80.130952 V 105.35474 H 98.07129 c 2.56117,0 4.63735,-2.07619 4.63735,-4.63735 V 64.835919 c 0,-2.560637 -2.07618,-4.636823 -4.63735,-4.636823 z"
         id="path1071" />
    </g>
    <g
       id="g1075"
       transform="matrix(0.26458333,0,0,0.26458333,12.39762,15.043453)">
</g>
    <g
       id="g1077"
       transform="matrix(0.26458333,0,0,0.26458333,12.39762,15.043453)">
</g>
    <g
       id="g1079"
       transform="matrix(0.26458333,0,0,0.26458333,12.39762,15.043453)">
</g>
    <g
       id="g1081"
       transform="matrix(0.26458333,0,0,0.26458333,12.39762,15.043453)">
</g>
    <g
       id="g1083"
       transform="matrix(0.26458333,0,0,0.26458333,12.39762,15.043453)">
</g>
    <g
       id="g1085"
       transform="matrix(0.26458333,0,0,0.26458333,12.39762,15.043453)">
</g>
    <g
       id="g1087"
       transform="matrix(0.26458333,0,0,0.26458333,12.39762,15.043453)">
</g>
    <g
       id="g1089"
       transform="matrix(0.26458333,0,0,0.26458333,12.39762,15.043453)">
</g>
    <g
       id="g1091"
       transform="matrix(0.26458333,0,0,0.26458333,12.39762,15.043453)">
</g>
    <g
       id="g1093"
       transform="matrix(0.26458333,0,0,0.26458333,12.39762,15.043453)">
</g>
    <g
       id="g1095"
       transform="matrix(0.26458333,0,0,0.26458333,12.39762,15.043453)">
</g>
    <g
       id="g1097"
       transform="matrix(0.26458333,0,0,0.26458333,12.39762,15.043453)">
</g>
    <g
       id="g1099"
       transform="matrix(0.26458333,0,0,0.26458333,12.39762,15.043453)">
</g>
    <g
       id="g1101"
       transform="matrix(0.26458333,0,0,0.26458333,12.39762,15.043453)">
</g>
    <g
       id="g1103"
       transform="matrix(0.26458333,0,0,0.26458333,12.39762,15.043453)">
</g>
    <g
       id="g1181"
       transform="matrix(0.24514223,0,0,0.24514223,51.119287,30.424393)">
      <g
         id="g851"
         transform="matrix(0.26458333,0,0,0.26458333,62.290311,146.20117)">
	<path
   style="fill:#464655"
   d="m 291.049,33.175 c -1.181,-4.741 -5.974,-7.612 -10.707,-6.422 -24.874,6.213 -41.584,27.142 -50.706,42.151 l -9.952,-3.98 c -5.02,-2.008 -10.619,-2.008 -15.639,0 l -9.952,3.98 C 184.97,53.895 168.26,32.967 143.387,26.753 c -4.724,-1.19 -9.517,1.681 -10.707,6.422 -1.181,4.724 1.694,9.517 6.422,10.698 17.905,4.48 30.886,20.041 38.606,32.193 -6.051,3.805 -9.982,10.317 -9.982,17.64 0,11.629 9.427,21.056 21.056,21.056 h 46.165 c 11.629,0 21.056,-9.427 21.056,-21.056 0,-7.322 -3.93,-13.835 -9.982,-17.64 7.72,-12.152 20.701,-27.713 38.606,-32.193 4.728,-1.181 7.604,-5.974 6.422,-10.698 z"
   id="path833" />

	<path
   style="fill:#464655"
   d="m 414.893,317.794 c -1.09,0 -2.198,-0.199 -3.276,-0.629 L 367.48,299.51 c -1.789,-0.715 -3.297,-2.001 -4.289,-3.656 -23.077,-38.465 -45.357,-39.844 -45.578,-39.853 -4.798,-0.207 -8.651,-4.215 -8.547,-9.008 0.104,-4.802 3.927,-8.647 8.728,-8.647 3.164,0 31.228,1.311 58.966,45.862 l 41.418,16.56 c 4.526,1.811 6.729,6.948 4.918,11.474 -1.383,3.456 -4.698,5.552 -8.203,5.552 z"
   id="path835" />

	<path
   style="fill:#464655"
   d="m 308.968,203.036 c -3.699,0 -7.143,-2.336 -8.375,-6.035 -1.543,-4.629 0.957,-9.63 5.582,-11.163 l 23.34,-7.785 c 4.203,-7.663 16.755,-33.724 23.681,-82.197 0.298,-2.103 1.354,-4.034 2.966,-5.431 L 400.3,52.27 c 3.685,-3.19 9.255,-2.776 12.448,0.905 3.19,3.69 2.784,9.267 -0.905,12.457 l -41.65,36.009 c -9.155,60.732 -26.643,87.508 -27.396,88.637 -1.09,1.63 -2.69,2.853 -4.552,3.474 l -26.483,8.827 c -0.929,0.31 -1.872,0.457 -2.794,0.457 z"
   id="path837" />

	<path
   style="fill:#464655"
   d="m 406.075,476.689 c -2.591,0 -5.155,-1.129 -6.896,-3.31 l -35.31,-44.138 c -0.793,-0.991 -1.362,-2.146 -1.673,-3.38 l -13.802,-55.206 c -1.587,-6.336 -6.505,-11.258 -12.845,-12.845 l -19.896,-4.974 c -4.728,-1.181 -7.604,-5.974 -6.422,-10.698 1.19,-4.741 6.004,-7.604 10.707,-6.422 l 19.896,4.974 c 12.676,3.164 22.517,13.008 25.689,25.689 l 13.332,53.336 34.107,42.629 c 3.048,3.81 2.431,9.362 -1.379,12.414 -1.625,1.301 -3.573,1.931 -5.508,1.931 z"
   id="path839" />

	<path
   style="fill:#464655"
   d="m 8.837,317.794 c -3.505,0 -6.819,-2.094 -8.203,-5.551 -1.811,-4.526 0.392,-9.664 4.918,-11.474 l 41.418,-16.56 c 27.737,-44.551 55.801,-45.862 58.966,-45.862 4.875,0 8.828,3.948 8.828,8.828 0,4.819 -3.866,8.741 -8.664,8.828 -0.767,0.052 -22.772,1.87 -45.56,39.853 -0.991,1.655 -2.5,2.94 -4.289,3.656 l -44.138,17.655 c -1.078,0.428 -2.186,0.627 -3.276,0.627 z"
   id="path841" />

	<path
   style="fill:#464655"
   d="m 114.762,203.036 c -0.922,0 -1.866,-0.147 -2.793,-0.457 l -26.483,-8.827 c -1.863,-0.621 -3.461,-1.845 -4.552,-3.474 -0.755,-1.129 -18.241,-27.905 -27.396,-88.637 L 11.886,65.631 c -3.69,-3.19 -4.095,-8.767 -0.905,-12.457 3.177,-3.681 8.755,-4.095 12.448,-0.905 l 44.138,38.155 c 1.612,1.397 2.668,3.328 2.966,5.431 6.922,48.439 19.461,74.5 23.681,82.197 l 23.34,7.785 c 4.625,1.535 7.125,6.535 5.582,11.163 -1.232,3.699 -4.676,6.036 -8.374,6.036 z"
   id="path843" />

	<path
   style="fill:#464655"
   d="m 17.655,476.689 c -1.935,0 -3.884,-0.629 -5.508,-1.931 -3.81,-3.052 -4.427,-8.604 -1.379,-12.414 L 44.875,419.715 58.207,366.379 C 61.379,353.698 71.22,343.853 83.896,340.69 l 19.896,-4.974 c 4.741,-1.181 9.522,1.681 10.707,6.422 1.181,4.724 -1.694,9.517 -6.422,10.698 l -19.896,4.974 c -6.34,1.587 -11.258,6.508 -12.845,12.845 l -13.802,55.206 c -0.31,1.233 -0.879,2.388 -1.673,3.38 l -35.31,44.138 c -1.74,2.171 -4.309,3.31 -6.896,3.31 z"
   id="path845" />

	<circle
   style="fill:#464655"
   cx="211.86099"
   cy="361.92801"
   r="114.758"
   id="circle847" />

	<rect
   x="114.758"
   y="203.033"
   style="fill:#464655"
   width="194.205"
   height="52.965"
   id="rect849" />

</g>
      <path
         style="fill:#5b5d6e;stroke-width:0.264583"
         d="m 122.68331,205.19293 5.25277,-2.10105 c 1.37954,-0.55166 2.85142,-0.83529 4.33732,-0.83529 h 11.58134 c 2.75087,0 4.9059,-2.36511 4.65111,-5.10381 l -0.55536,-5.96927 c -0.89377,-9.60728 -8.95562,-16.95423 -18.60471,-16.95423 h -21.99957 c -9.648829,0 -17.710947,7.34668 -18.60471,16.95423 l -0.555096,5.96953 c -0.254793,2.7387 1.900238,5.10381 4.651111,5.10381 h 11.581345 c 1.48563,0 2.95777,0.28337 4.33731,0.83529 l 5.25277,2.10106 c 2.78448,1.11337 5.89016,1.11337 8.67437,-2.7e-4 z"
         id="path853" />
      <path
         style="fill:#5b5d6e;stroke-width:0.264583"
         d="m 123.96389,218.0755 5.50704,-7.38876 c 1.76345,-2.36564 4.54025,-3.7592 7.49062,-3.7592 h -4.68868 c -0.89165,0 -1.77509,0.17013 -2.60271,0.50139 l -5.25224,2.10079 c -1.93993,0.77602 -3.98278,1.16946 -6.07193,1.16946 -2.08915,0 -4.13226,-0.39344 -6.07192,-1.16946 l -5.25251,-2.10079 c -0.82761,-0.331 -1.71106,-0.50139 -2.6027,-0.50139 h -4.68842 c 2.9501,0 5.72717,1.39356 7.49062,3.7592 l 5.5073,7.38876 c 2.80194,3.7592 8.43386,3.7592 11.23553,0 z"
         id="path855" />
      <g
         id="g877"
         transform="matrix(0.26458333,0,0,0.26458333,62.290311,146.20117)">
	<path
   style="fill:#c3e678"
   d="m 190.631,271.651 -20.815,-27.926 c -6.664,-8.94 -17.16,-14.208 -28.311,-14.208 h -33.233 c -7.839,0 -14.389,5.968 -15.115,13.774 l -9.451,101.597 c -6.146,66.066 38.64,124.126 100.74,137.578 5.369,1.163 10.55,-2.679 10.847,-8.165 l 10.068,-186.252 c 0.195,-3.605 -1.871,-6.856 -5.12,-8.43 -3.649,-1.768 -6.965,-4.419 -9.61,-7.968 z"
   id="path873" />

	<path
   style="fill:#c3e678"
   d="m 340.024,344.889 -9.451,-101.597 c -0.726,-7.806 -7.276,-13.774 -15.115,-13.774 h -33.234 c -11.151,0 -21.646,5.268 -28.31,14.208 L 233.1,271.651 c -2.645,3.549 -5.961,6.2 -9.609,7.969 -3.249,1.575 -5.315,4.825 -5.12,8.43 l 10.068,186.252 c 0.297,5.486 5.477,9.328 10.847,8.165 62.098,-13.453 106.884,-71.511 100.738,-137.578 z"
   id="path875" />

</g>
      <path
         style="fill:#505161;stroke-width:0.264583"
         d="m 123.51304,174.22928 h -16.16657 c -9.649089,0 -17.710943,7.34695 -18.604705,16.9545 l -0.555361,5.969 c -0.254793,2.7387 1.900238,5.10381 4.651111,5.10381 h 11.494825 v 0 c -0.15769,-1.55284 -0.16431,-3.11759 -0.0199,-4.67149 l 0.59558,-6.40159 c 0.89403,-9.60755 8.95588,-16.95423 18.60497,-16.95423 z"
         id="path879" />
      <path
         style="fill:#a5d76e;stroke-width:0.264583"
         d="m 102.14582,238.10366 2.36035,-29.79923 c -1.43298,-0.85883 -3.06123,-1.37689 -4.775995,-1.37689 h -8.792898 c -2.074068,0 -3.807089,1.57904 -3.999177,3.64411 l -2.500577,26.88087 c -1.626129,17.48023 10.2235,32.84167 26.654127,36.40085 1.29143,0.27966 2.49131,-0.55801 2.76754,-1.79838 -8.02349,-8.11424 -12.78017,-20.48245 -11.71337,-33.95133 z"
         id="path881" />
    </g>
  </g>
</svg>
